<?xml version="1.0" encoding="UTF-8" standalone="no"?>
<!DOCTYPE svg PUBLIC "-//W3C//DTD SVG 1.1//EN" "http://www.w3.org/Graphics/SVG/1.1/DTD/svg11.dtd">
<svg width="100%" height="100%" viewBox="0 0 512 512" version="1.1" xmlns="http://www.w3.org/2000/svg" xmlns:xlink="http://www.w3.org/1999/xlink" xml:space="preserve" xmlns:serif="http://www.serif.com/" style="fill-rule:evenodd;clip-rule:evenodd;stroke-linejoin:round;stroke-miterlimit:2;">
    <rect id="clearance-padding" serif:id="clearance/padding" x="0" y="0" width="512" height="512" style="fill:none;"/>
    <g id="TetraLogical-logomark" serif:id="TetraLogical logomark">
        <g id="scaffold">
            <path d="M90.072,267.377c-2.843,-8.011 1.348,-16.825 9.359,-19.668c8.008,-2.847 16.821,1.348 19.668,9.359l36.557,102.926c2.843,8.011 -1.348,16.824 -9.359,19.668c-8.008,2.846 -16.821,-1.349 -19.668,-9.36l-36.557,-102.925Z" style="fill:#2d0045;fill-opacity:0.62;"/>
            <path d="M120.396,244.63c-4.512,-3.154 -5.615,-9.373 -2.464,-13.885c3.154,-4.513 9.373,-5.619 13.885,-2.465l240.64,168.114c4.513,3.154 5.615,9.373 2.465,13.885c-3.154,4.513 -9.373,5.619 -13.886,2.465l-240.64,-168.114Z" style="fill:#2d0045;fill-opacity:0.28;"/>
            <path d="M140.357,202.882c-7.864,3.16 -16.817,-0.659 -19.981,-8.523c-3.161,-7.865 0.658,-16.818 8.523,-19.982l209.09,-84.053c7.865,-3.161 16.818,0.658 19.982,8.523c3.161,7.864 -0.659,16.817 -8.523,19.981l-209.091,84.054Z" style="fill:#2d0045;fill-opacity:0.62;"/>
            <path d="M391.19,148.48c-0,-8.479 6.884,-15.36 15.36,-15.36c8.478,0 15.36,6.881 15.36,15.36l-0,228.693c-0,8.479 -6.882,15.36 -15.36,15.36c-8.476,0 -15.36,-6.881 -15.36,-15.36l-0,-228.693Z" style="fill:#2d0045;fill-opacity:0.62;"/>
            <path d="M235.333,447.829c-8.478,0 -15.36,-6.881 -15.36,-15.36c0,-8.478 6.882,-15.36 15.36,-15.36l119.467,0c8.479,0 15.36,6.882 15.36,15.36c-0,8.479 -6.881,15.36 -15.36,15.36l-119.467,0Z" style="fill:#2d0045;fill-opacity:0.62;"/>
            <path d="M209.74,385.655c-3.103,4.547 -9.315,5.718 -13.858,2.615c-4.547,-3.106 -5.717,-9.315 -2.615,-13.861l169.377,-248.064c3.103,-4.547 9.315,-5.718 13.858,-2.615c4.547,3.106 5.717,9.315 2.615,13.861l-169.377,248.064Z" style="fill:#2d0045;fill-opacity:0.84;"/>
        </g>
        <path id="original" d="M406.683,30.604c-26.996,-0 -48.883,21.886 -48.883,48.882c0,27 21.887,48.883 48.883,48.883c26.996,-0 48.882,-21.883 48.882,-48.879c0,-27 -21.886,-48.886 -48.882,-48.886Zm-79.487,48.882c0,-43.895 35.588,-79.486 79.487,-79.486c43.899,0 79.486,35.587 79.486,79.486c-0,43.899 -35.587,79.49 -79.486,79.49c-43.899,0 -79.487,-35.591 -79.487,-79.49Z" style="fill:#f56f00;"/>
        <path id="ethical" d="M86.061,175.025c-18.476,0 -33.457,14.978 -33.457,33.458c-0,18.476 14.981,33.457 33.457,33.457c18.48,0 33.458,-14.981 33.458,-33.457c-0,-18.48 -14.978,-33.458 -33.458,-33.458Zm-64.061,33.458c0,-35.379 28.682,-64.065 64.061,-64.065c35.383,0 64.065,28.682 64.065,64.062c0,35.379 -28.682,64.061 -64.065,64.061c-35.379,0.003 -64.061,-28.679 -64.061,-64.055l0,-0.003Z" style="fill:#e100a0;"/>
        <path id="sustainable" d="M165.674,383.631c-26.996,0 -48.879,21.883 -48.879,48.883c0,26.996 21.883,48.882 48.879,48.882c26.999,0 48.886,-21.886 48.886,-48.882c-0,-27 -21.887,-48.883 -48.886,-48.883Zm-79.486,48.883c-0,-43.899 35.587,-79.49 79.486,-79.49c43.902,0 79.49,35.591 79.49,79.49c-0,43.899 -35.588,79.486 -79.49,79.486c-43.895,0 -79.486,-35.587 -79.486,-79.486Z" style="fill:#ff1958;"/>
        <path id="inclusive" d="M406.539,399.797c-17.923,-0 -32.672,14.749 -32.672,32.672c-0,17.924 14.749,32.673 32.672,32.673c17.924,-0 32.673,-14.749 32.673,-32.673c-0,-17.923 -14.749,-32.672 -32.673,-32.672Zm-63.276,32.672c-0,-34.945 28.327,-63.276 63.276,-63.276c34.946,-0 63.277,28.331 63.277,63.276c-0,34.946 -28.331,63.277 -63.277,63.277c-34.949,-0 -63.276,-28.331 -63.276,-63.277Z" style="fill:#a900c0;"/>
    </g>
</svg>
